<?xml version="1.0" encoding="UTF-8" standalone="no"?>
<!DOCTYPE svg PUBLIC "-//W3C//DTD SVG 20010904//EN"
              "http://www.w3.org/TR/2001/REC-SVG-20010904/DTD/svg10.dtd">

<svg xmlns="http://www.w3.org/2000/svg"
     width="5.21111in" height="5.21111in"
     viewBox="0 0 469 469">
  <path id="Selection"
        fill="none" stroke="black" stroke-width="1"
        d="M 140.00,54.00
           C 140.00,54.00 140.00,47.00 140.00,47.00
             135.34,49.40 133.43,52.84 140.00,54.00 Z
           M 188.00,146.00
           C 188.00,146.00 188.00,144.00 188.00,144.00
             192.95,141.49 200.15,137.80 203.00,133.00
             196.23,133.76 187.03,139.91 184.00,146.00
             184.00,146.00 197.00,156.00 197.00,156.00
             197.00,156.00 192.00,156.00 192.00,156.00
             192.00,156.00 189.83,171.63 189.83,171.63
             189.83,171.63 186.00,176.00 186.00,176.00
             180.82,174.11 179.67,176.47 176.00,180.00
             176.00,180.00 180.00,172.00 180.00,172.00
             178.05,171.11 176.27,170.09 174.01,170.42
             170.27,170.98 162.24,180.65 160.43,184.00
             159.35,186.01 159.33,186.85 159.00,189.00
             167.81,191.18 165.47,190.63 176.00,180.00
             173.88,183.63 168.89,190.89 164.96,192.40
             162.75,193.25 156.63,193.00 154.00,193.00
             154.00,193.00 156.57,202.00 156.57,202.00
             156.57,202.00 152.71,210.00 152.71,210.00
             152.71,210.00 156.42,219.00 156.42,219.00
             156.42,219.00 153.00,229.00 153.00,229.00
             153.00,229.00 166.00,230.02 166.00,230.02
             166.00,230.02 176.61,241.00 176.61,241.00
             176.61,241.00 189.51,256.00 189.51,256.00
             189.51,256.00 196.00,266.00 196.00,266.00
             193.65,267.99 185.20,273.27 185.20,276.05
             185.20,279.13 190.72,281.99 193.00,283.51
             199.77,288.04 211.47,297.95 219.00,299.00
             216.70,294.65 213.02,292.71 209.00,289.96
             201.82,285.04 195.91,280.79 188.00,277.00
             188.00,277.00 188.00,275.00 188.00,275.00
             191.16,273.79 197.67,269.14 199.89,269.58
             202.30,270.06 203.93,273.76 205.49,275.58
             205.49,275.58 211.82,282.00 211.82,282.00
             211.82,282.00 220.98,293.00 220.98,293.00
             222.62,294.73 225.49,298.37 228.05,298.37
             230.85,298.37 234.21,293.94 236.00,292.00
             236.00,292.00 249.84,276.00 249.84,276.00
             251.37,274.29 253.90,270.88 256.04,270.14
             259.13,269.07 265.03,273.50 268.00,275.00
             268.00,275.00 268.00,277.00 268.00,277.00
             268.00,277.00 258.00,280.00 258.00,280.00
             254.74,284.16 249.28,288.12 244.91,291.26
             240.98,294.08 238.62,294.21 237.00,299.00
             244.69,297.44 256.15,288.25 263.00,283.67
             265.29,282.14 270.80,279.05 270.80,276.00
             270.80,272.85 261.63,267.22 259.00,265.00
             260.31,264.93 261.17,265.25 262.38,264.22
             263.71,263.11 263.77,261.04 264.83,259.00
             265.79,257.12 269.21,252.83 270.66,251.00
             270.66,251.00 280.34,240.00 280.34,240.00
             283.13,236.50 286.68,231.19 291.00,229.60
             293.37,228.72 300.15,229.00 303.00,229.00
             303.00,229.00 299.52,219.00 299.52,219.00
             299.52,219.00 303.19,210.00 303.19,210.00
             303.19,210.00 299.57,202.00 299.57,202.00
             299.57,202.00 303.00,193.00 303.00,193.00
             303.00,193.00 302.00,192.00 302.00,192.00
             297.29,192.84 291.48,194.25 287.59,190.57
             283.47,186.67 277.37,172.75 271.00,176.00
             271.00,176.00 266.77,172.54 266.77,172.54
             266.77,172.54 265.69,166.00 265.69,166.00
             265.69,166.00 264.00,156.00 264.00,156.00
             264.00,156.00 259.00,156.00 259.00,156.00
             263.62,151.79 270.16,148.96 272.00,143.00
             272.00,143.00 254.00,133.00 254.00,133.00
             254.00,133.00 259.00,141.00 259.00,141.00
             259.00,141.00 268.00,144.00 268.00,144.00
             268.00,144.00 268.00,146.00 268.00,146.00
             264.06,147.53 258.74,151.88 256.44,151.36
             254.43,150.90 252.57,147.82 251.29,146.28
             251.29,146.28 240.42,134.43 240.42,134.43
             236.48,131.08 230.83,131.99 226.00,132.00
             214.82,132.02 214.34,136.00 207.07,144.00
             205.20,146.07 201.79,150.82 198.99,151.13
             196.80,151.37 191.07,147.19 188.00,146.00 Z
           M 281.00,149.00
           C 281.00,149.00 281.00,150.00 281.00,150.00
             281.00,150.00 282.00,149.00 282.00,149.00
             282.00,149.00 281.00,149.00 281.00,149.00 Z
           M 305.00,150.00
           C 303.24,154.88 302.16,159.03 304.00,164.00
             298.87,164.55 296.50,165.27 294.00,170.00
             294.00,170.00 306.91,168.52 306.91,168.52
             306.91,168.52 317.00,170.00 317.00,170.00
             317.00,170.00 319.00,183.00 319.00,183.00
             313.76,183.73 311.61,184.79 310.00,190.00
             313.68,189.50 317.80,189.03 320.57,186.28
             323.91,182.97 322.32,179.70 322.37,177.28
             322.41,175.47 323.35,173.70 322.98,171.98
             321.72,166.13 313.00,164.16 308.00,164.00
             309.70,159.27 308.39,154.73 307.00,150.00
             307.00,150.00 305.00,150.00 305.00,150.00 Z
           M 148.00,151.00
           C 147.24,156.64 145.88,158.45 148.00,164.00
             132.04,164.88 124.57,179.26 137.00,187.41
             139.74,189.20 143.79,189.57 147.00,190.00
             144.80,185.75 142.92,183.94 138.00,184.00
             138.00,184.00 137.00,174.00 137.00,174.00
             145.02,180.61 147.52,189.73 154.83,182.85
             155.82,181.92 157.26,180.13 158.06,179.00
             159.69,176.70 160.13,175.61 161.00,173.00
             154.91,171.52 145.09,171.52 139.00,173.00
             139.00,173.00 140.00,168.82 140.00,168.82
             140.00,168.82 149.09,168.82 149.09,168.82
             149.09,168.82 155.00,169.87 155.00,169.87
             155.00,169.87 162.00,169.87 162.00,169.87
             159.47,165.14 157.29,164.38 152.00,164.00
             154.61,158.57 152.81,156.73 152.00,151.00
             152.00,151.00 148.00,151.00 148.00,151.00 Z
           M 182.00,151.00
           C 182.00,151.00 183.00,164.00 183.00,164.00
             186.16,159.71 185.71,154.76 182.00,151.00 Z
           M 159.00,152.00
           C 159.00,152.00 158.00,163.00 158.00,163.00
             158.00,163.00 164.00,165.00 164.00,165.00
             160.74,157.93 161.01,160.29 161.00,152.00
             161.00,152.00 159.00,152.00 159.00,152.00 Z
           M 170.01,152.65
           C 160.79,154.88 164.25,163.22 172.98,161.85
             178.73,160.96 178.35,155.79 176.26,153.96
             174.61,152.50 172.04,152.64 170.01,152.65 Z
           M 283.00,152.52
           C 272.05,155.62 278.93,164.35 287.77,161.71
             291.37,160.63 291.44,155.92 289.26,153.83
             287.48,152.11 285.22,152.38 283.00,152.52 Z
           M 294.00,152.00
           C 294.00,159.21 294.43,158.29 292.00,165.00
             292.00,165.00 297.00,164.00 297.00,164.00
             298.34,159.27 299.56,153.95 294.00,152.00 Z
           M 171.00,165.00
           C 173.16,167.30 174.05,166.64 177.00,166.00
             177.00,166.00 171.00,165.00 171.00,165.00 Z
           M 283.00,166.00
           C 283.00,166.00 289.00,166.00 289.00,166.00
             289.00,166.00 283.00,166.00 283.00,166.00 Z
           M 279.15,170.76
           C 277.41,172.00 276.24,172.50 277.17,175.04
             277.67,176.42 285.99,186.44 287.44,187.84
             289.09,189.44 290.54,190.52 292.95,189.85
             298.28,188.36 295.70,183.92 293.56,181.00
             289.95,176.08 285.90,169.57 279.15,170.76 Z
           M 295.00,174.00
           C 296.63,176.79 301.20,183.70 304.17,184.83
             308.04,186.31 316.35,178.15 315.26,174.31
             314.50,171.67 310.12,172.01 308.00,172.00
             302.51,171.96 300.00,171.36 295.00,174.00 Z
           M 135.00,176.00
           C 135.00,176.00 135.00,177.00 135.00,177.00
             135.00,177.00 134.00,176.00 134.00,176.00
             134.00,176.00 135.00,176.00 135.00,176.00 Z
           M 148.00,257.00
           C 145.91,261.77 146.44,269.08 152.00,271.00
             152.91,264.24 155.10,262.00 151.00,256.00
             151.00,256.00 162.00,254.00 162.00,254.00
             158.23,248.07 154.35,252.02 149.00,252.11
             149.00,252.11 139.00,251.00 139.00,251.00
             139.00,251.00 137.07,243.58 137.07,243.58
             137.07,243.58 137.07,238.00 137.07,238.00
             141.80,236.50 144.05,236.31 147.00,232.00
             136.67,229.55 127.05,239.64 132.28,248.91
             135.81,255.18 141.94,255.50 148.00,257.00 Z
           M 180.00,248.00
           C 177.80,244.24 176.90,243.24 174.05,240.00
             174.05,240.00 169.88,235.08 169.88,235.08
             163.99,228.21 159.61,232.40 159.90,235.08
             160.15,237.50 163.41,240.54 165.00,242.28
             170.27,248.07 172.20,253.04 180.00,248.00 Z
           M 276.00,249.00
           C 278.06,249.77 280.60,250.98 282.83,250.30
             285.64,249.45 294.88,238.87 295.85,236.04
             297.08,232.43 292.68,228.50 286.17,235.06
             286.17,235.06 280.95,241.00 280.95,241.00
             278.19,244.18 277.37,244.98 276.00,249.00 Z
           M 310.00,231.00
           C 311.60,235.94 313.90,237.20 319.00,237.00
             319.00,237.00 317.00,251.00 317.00,251.00
             309.80,250.03 307.38,254.68 299.00,250.00
             299.00,250.00 294.00,254.00 294.00,254.00
             294.00,254.00 304.00,256.00 304.00,256.00
             304.00,256.00 304.00,271.00 304.00,271.00
             304.00,271.00 308.00,271.00 308.00,271.00
             308.00,271.00 308.00,257.00 308.00,257.00
             312.95,255.78 321.47,255.13 322.71,248.91
             323.39,247.39 322.83,245.55 322.71,244.00
             322.58,241.86 323.13,239.08 322.71,237.18
             320.51,232.42 314.48,231.14 310.00,231.00 Z
           M 148.17,236.08
           C 145.66,237.93 139.94,243.13 140.82,246.69
             141.76,250.42 156.99,249.15 158.17,247.98
             160.34,246.33 159.04,243.73 158.17,242.00
             155.53,238.09 152.91,235.13 148.17,236.08 Z
           M 304.03,236.08
           C 301.56,237.79 294.95,243.88 297.13,247.40
             298.55,249.70 312.52,249.59 314.58,247.98
             316.86,246.20 315.08,243.73 313.79,242.00
             311.00,238.24 308.89,235.14 304.03,236.08 Z
           M 168.00,255.00
           C 168.00,255.00 168.00,256.00 168.00,256.00
             168.00,256.00 169.00,255.00 169.00,255.00
             169.00,255.00 168.00,255.00 168.00,255.00 Z
           M 165.00,256.00
           C 165.00,256.00 165.00,257.00 165.00,257.00
             165.00,257.00 166.00,256.00 166.00,256.00
             166.00,256.00 165.00,256.00 165.00,256.00 Z
           M 159.00,269.00
           C 159.00,269.00 162.00,257.00 162.00,257.00
             156.48,259.22 157.60,264.09 159.00,269.00 Z
           M 181.00,257.00
           C 181.00,257.00 182.00,269.00 182.00,269.00
             182.00,269.00 185.00,269.00 185.00,269.00
             185.00,263.98 186.51,258.93 181.00,257.00 Z
           M 273.00,257.00
           C 273.00,257.00 272.00,261.00 272.00,261.00
             272.00,261.00 275.00,257.00 275.00,257.00
             275.00,257.00 273.00,257.00 273.00,257.00 Z
           M 294.00,257.00
           C 294.00,257.00 294.00,269.00 294.00,269.00
             294.00,269.00 290.00,270.00 290.00,270.00
             298.79,270.68 301.34,259.57 294.00,257.00 Z
           M 168.06,259.17
           C 159.47,265.80 169.84,270.45 174.87,268.14
             178.63,266.41 178.79,261.40 175.71,259.17
             173.12,257.56 170.73,258.14 168.06,259.17 Z
           M 281.11,259.01
           C 272.33,264.58 281.68,270.34 286.94,268.39
             291.06,266.86 292.08,261.43 288.69,259.01
             286.29,257.58 283.63,258.16 281.11,259.01 Z
           M 197.00,265.00
           C 197.00,265.00 197.00,266.00 197.00,266.00
             197.00,266.00 196.00,265.00 196.00,265.00
             196.00,265.00 197.00,265.00 197.00,265.00 Z
           M 272.00,267.00
           C 272.00,267.00 277.00,270.00 277.00,270.00
             277.00,270.00 272.00,267.00 272.00,267.00 Z
           M 171.00,272.00
           C 175.01,272.78 178.62,271.29 181.00,268.00
             181.00,268.00 171.00,272.00 171.00,272.00 Z
           M 278.00,269.00
           C 278.00,269.00 278.00,270.00 278.00,270.00
             278.00,270.00 279.00,269.00 279.00,269.00
             279.00,269.00 278.00,269.00 278.00,269.00 Z
           M 282.00,271.00
           C 282.00,271.00 288.00,272.00 288.00,272.00
             288.00,272.00 282.00,271.00 282.00,271.00 Z" />
</svg>
